PathFileType	4	(X/Y/Z)	 s04c0401.trc
DataRate	CameraRate	NumFrames	NumMarkers	Units	OrigDataRate	OrigDataStartFrame	OrigNumFrames
200	200	4	50	mm	200	1001	2000
Frame#	Time	racr			lacr			c7			jug			rlel			rdr			llel			ldr			s2			lic			ric			lasi			rasi			rpsi			lpsi			rgt			lgt			rth1			rth2			rth3			rth4			rlfc			rmfc			rsh1			rsh2			rsh3			rsh4			rlmal			rmmal			rcal			rtoe			rmt5			lth1			lth2			lth4			lth3			llfc			lmfc			lsh1			lsh2			lsh3			lsh4			llmal			lmmal			lcal			ltoe			lmt5			SBIKE			LBIKE			RBIKE			
		X1	Y1	Z1	X2	Y2	Z2	X3	Y3	Z3	X4	Y4	Z4	X5	Y5	Z5	X6	Y6	Z6	X7	Y7	Z7	X8	Y8	Z8	X9	Y9	Z9	X10	Y10	Z10	X11	Y11	Z11	X12	Y12	Z12	X13	Y13	Z13	X14	Y14	Z14	X15	Y15	Z15	X16	Y16	Z16	X17	Y17	Z17	X18	Y18	Z18	X19	Y19	Z19	X20	Y20	Z20	X21	Y21	Z21	X22	Y22	Z22	X23	Y23	Z23	X24	Y24	Z24	X25	Y25	Z25	X26	Y26	Z26	X27	Y27	Z27	X28	Y28	Z28	X29	Y29	Z29	X30	Y30	Z30	X31	Y31	Z31	X32	Y32	Z32	X33	Y33	Z33	X34	Y34	Z34	X35	Y35	Z35	X36	Y36	Z36	X37	Y37	Z37	X38	Y38	Z38	X39	Y39	Z39	X40	Y40	Z40	X41	Y41	Z41	X42	Y42	Z42	X43	Y43	Z43	X44	Y44	Z44	X45	Y45	Z45	X46	Y46	Z46	X47	Y47	Z47	X48	Y48	Z48	X49	Y49	Z49	X50	Y50	Z50	
1001	5.0050	845.695231	1284.656824	-77.683862	849.638612	1255.662782	-414.972547	882.329146	1352.231385	-253.892319	802.413194	1216.338361	-244.861551	564.493108	1162.963238	50.180417	698.499477	939.707542	-53.193042	600.771220	1169.673967	-565.396196	701.581700	948.075675	-469.273216	280.598547	1278.472289	-281.274009	437.787258	1225.474100	-429.747572	421.563107	1275.786744	-110.560214	462.972282	1173.202778	-381.666703	450.313497	1205.853393	-142.402051	315.803642	1319.440320	-241.242410	321.481436	1310.030550	-318.202223	368.704684	1223.224590	-89.082207	361.193890	1137.566503	-438.097269	451.775091	1080.724822	-70.212881	512.853731	1017.246927	-75.974582	537.168468	935.326055	-75.096290	540.025417	1033.754642	-96.095918	577.963430	799.972262	-96.560317	558.513001	788.627615	-209.948348	463.423697	754.666210	-76.591553	392.233124	699.830922	-95.274881	306.910629	693.400847	-105.704188	408.732987	672.761351	-116.902715	171.289657	621.999875	-120.559562	197.720931	609.160080	-204.301046	109.736252	656.793593	-166.192197	261.974215	394.832545	-150.456722	204.031333	439.488263	-99.287986	369.029796	1047.025131	-451.164586	407.194487	968.757259	-452.642832	442.611804	976.351823	-447.434112	400.939943	880.173148	-448.463395	420.902107	716.093749	-431.818731	433.923609	688.031441	-321.024856	385.966130	592.538104	-454.924277	376.236341	508.052596	-437.365753	326.821750	434.533690	-440.747595	402.491129	500.686174	-408.093199	274.433848	296.218088	-442.636241	265.643981	297.769477	-354.495097	192.224909	305.942462	-408.625713	463.218740	169.144354	-392.625357	388.307193	166.170645	-459.611097	-177.142287	938.494620	-280.144486	-3.061490	85.638821	-484.748571	-14.983850	80.588512	-84.293170	
1002	5.0100	846.691836	1284.677832	-76.069735	849.475038	1256.319994	-413.510026	882.370293	1352.265043	-252.127328	802.788949	1216.218235	-242.758831	564.962790	1162.739768	51.238336	698.569045	939.789391	-53.198997	601.469169	1169.919046	-563.944264	702.045212	947.813599	-469.525611	281.014359	1277.581940	-284.137821	440.247430	1222.976421	-429.901919	419.852308	1276.908152	-111.577759	464.254048	1170.724831	-380.885627	449.533585	1206.864829	-142.342828	315.753593	1318.818175	-244.318497	322.454233	1308.788368	-320.961864	367.662510	1224.669811	-90.229119	361.793607	1135.397031	-438.636962	453.568262	1083.911045	-70.837523	515.455646	1021.206300	-76.361165	541.669559	940.007398	-75.682518	542.572009	1038.586209	-96.811911	585.149607	805.358375	-96.968507	565.772528	793.571414	-210.639733	470.953847	760.247476	-77.717974	399.608413	705.588275	-95.886412	314.292236	699.343088	-106.185172	416.204605	678.041216	-117.507480	178.981899	627.693002	-120.888451	205.134508	615.094273	-204.650137	116.662771	662.066463	-166.631161	271.784585	401.795630	-150.475588	213.566661	446.151868	-99.327308	367.394348	1045.277546	-451.952801	403.557187	966.076938	-453.403822	439.112498	972.727647	-447.918354	394.983550	877.702262	-449.342731	410.843894	712.869354	-432.427595	423.409135	685.084842	-321.458434	375.858794	589.018009	-455.512693	366.962005	504.538123	-437.931720	318.132125	430.637895	-441.167108	393.396373	497.361777	-408.805421	266.857117	291.885818	-442.887650	258.190590	292.732764	-355.333333	185.507407	302.642339	-408.719350	454.380338	161.633334	-392.796507	379.410495	159.844334	-459.808279	-177.172707	938.475355	-280.084385	-3.053125	85.633459	-484.749399	-14.958091	80.575565	-84.286184	
1003	5.0150	847.627139	1284.581292	-74.506516	849.353886	1256.882031	-412.032516	882.433120	1352.342460	-250.624791	803.253232	1216.099827	-240.988878	565.423961	1162.498070	52.265171	698.617825	939.875852	-53.143901	602.166291	1170.336848	-563.049449	702.483879	947.518915	-469.758837	281.465014	1276.733710	-287.035879	442.646077	1220.497852	-429.914735	418.061981	1278.087280	-112.573683	465.379742	1168.188612	-379.810319	448.624261	1207.868941	-142.090858	315.823140	1318.159599	-247.420177	323.409985	1307.328789	-323.895181	366.607299	1226.291934	-91.170691	362.416430	1133.421306	-439.225137	455.078361	1087.004751	-70.956210	518.530382	1025.883336	-77.118980	545.944305	944.730621	-76.111019	544.964080	1043.432118	-97.540470	592.401936	810.705390	-97.451400	572.867444	798.878753	-211.573630	478.513580	765.906009	-78.568507	407.100408	711.149234	-96.410705	321.810043	704.778315	-106.639390	423.494789	684.060384	-117.909047	186.748382	632.877172	-121.181192	212.785963	620.490831	-204.909687	123.790193	666.586934	-166.736818	281.771474	408.145592	-150.525469	223.286752	452.065375	-99.366714	365.892816	1043.852304	-452.872475	400.040820	963.715896	-454.232907	435.690560	969.494273	-448.472567	388.944769	875.630322	-450.300013	400.859667	710.138612	-433.160188	413.217733	682.525489	-322.064950	365.889319	586.109633	-456.134351	357.763027	501.552353	-438.588704	309.361604	427.307902	-441.646392	384.321434	494.515622	-409.555070	259.127295	288.196134	-443.115819	250.663457	288.554024	-356.200335	178.628720	300.050099	-408.719186	445.240424	154.601050	-393.140139	370.165359	154.076184	-460.036052	-177.180391	938.483125	-280.065180	-3.049037	85.631551	-484.737929	-14.953697	80.567738	-84.267288	
1004	5.0200	848.448700	1284.456377	-73.019314	849.294971	1257.531245	-410.525223	882.444165	1352.398363	-249.055271	803.673963	1215.951540	-239.229251	565.771009	1162.269030	53.338037	698.649635	940.041535	-53.102391	602.913187	1170.758004	-562.457110	702.830921	947.110906	-469.901683	281.612422	1276.075252	-289.859010	444.972544	1218.022078	-429.755859	416.273960	1279.250092	-113.636387	466.455329	1165.953861	-378.892542	447.516444	1208.801788	-141.908205	316.148482	1317.895162	-250.495694	324.577112	1305.981023	-327.016821	365.430351	1227.991495	-92.082994	363.051738	1131.687628	-439.909018	456.591709	1090.193835	-71.308722	521.172723	1030.255342	-77.491822	550.155718	949.667420	-76.760512	546.992862	1048.179732	-98.279726	599.647359	816.859924	-98.071026	580.138314	804.088688	-211.793363	486.081212	771.520184	-79.499774	414.799201	716.434867	-96.940373	329.450828	709.950619	-106.968673	431.422926	688.817533	-118.526955	194.710567	637.426442	-121.412656	220.637961	625.515601	-205.210253	131.139535	670.538518	-166.750031	292.248409	413.963367	-150.568981	233.262854	457.379513	-99.461726	364.444456	1042.664600	-453.838483	396.534675	961.693532	-455.204096	432.271894	966.512275	-449.190512	383.445453	873.828332	-451.534469	391.048522	707.751253	-433.979982	403.413328	680.513158	-322.755985	355.914318	583.811914	-456.656774	348.553164	499.070862	-439.330347	300.650199	424.513656	-442.082227	375.547653	492.137550	-410.196905	251.302444	285.157906	-443.286079	243.068373	285.190968	-356.620027	171.635913	298.247313	-408.714640	435.757052	147.958580	-393.405537	360.629646	148.823870	-460.221121	-177.164239	938.504611	-279.981348	-3.050480	85.613374	-484.749387	-14.963473	80.587647	-84.299950	
